<svg width="16" height="16" viewBox="0 0 16 16" fill="none" xmlns="http://www.w3.org/2000/svg">
<path d="M9.41541 8.00017L15.7075 1.7081C16.0984 1.31752 16.0984 0.683775 15.7075 0.293189C15.3166 -0.0977298 14.6835 -0.0977298 14.2926 0.293189L8.0005 6.58525L1.7081 0.293189C1.31718 -0.0977298 0.684108 -0.0977298 0.293189 0.293189C-0.0977298 0.683775 -0.0977298 1.31752 0.293189 1.7081L6.58559 8.00017L0.293189 14.2922C-0.0977298 14.6828 -0.0977298 15.3166 0.293189 15.7071C0.488649 15.9023 0.744814 16 1.00065 16C1.25648 16 1.51264 15.9023 1.7081 15.7068L8.0005 9.41475L14.2926 15.7068C14.488 15.9023 14.7442 16 15 16C15.2559 16 15.512 15.9023 15.7075 15.7068C16.0984 15.3162 16.0984 14.6825 15.7075 14.2919L9.41541 8.00017Z" fill="#EE650D"/>
</svg>
