<?xml version="1.0" encoding="iso-8859-1"?>
<!-- Generator: Adobe Illustrator 19.0.1, SVG Export Plug-In . SVG Version: 6.00 Build 0)  -->
<svg version="1.1" id="Layer_1" xmlns="http://www.w3.org/2000/svg" xmlns:xlink="http://www.w3.org/1999/xlink" x="0px" y="0px"
	 viewBox="0 0 50 50" style="enable-background:new 0 0 50 50;" xml:space="preserve">
<g>
	<path style="fill:#484848;" d="M39.618,32.06c-2.876,0-5.44,1.37-7.08,3.488l-13.735-7.672c0.322-0.924,0.498-1.921,0.498-2.949
		c0-1.038-0.176-2.024-0.508-2.958l13.725-7.662c1.63,2.129,4.205,3.51,7.091,3.51c4.921,0,8.939-4.008,8.939-8.939
		s-4.007-8.939-8.939-8.939c-4.931,0-8.939,4.007-8.939,8.939c0,1.038,0.176,2.035,0.508,2.959l-13.715,7.662
		c-1.63-2.139-4.205-3.509-7.091-3.509c-4.921,0-8.939,4.007-8.939,8.939s4.018,8.939,8.949,8.939c2.886,0,5.461-1.381,7.101-3.52
		l13.725,7.672c-0.332,0.934-0.519,1.941-0.519,2.979c0,4.921,4.007,8.939,8.939,8.939s8.939-4.008,8.939-8.939
		S44.549,32.06,39.618,32.06L39.618,32.06z M39.618,2.751c3.385,0,6.136,2.751,6.136,6.136c0,3.384-2.751,6.135-6.136,6.135
		c-3.384,0-6.135-2.751-6.135-6.135C33.482,5.502,36.244,2.751,39.618,2.751L39.618,2.751z M10.382,31.063
		c-3.385,0-6.136-2.751-6.136-6.136c0-3.384,2.751-6.136,6.136-6.136c3.384,0,6.135,2.751,6.135,6.136
		C16.518,28.312,13.756,31.063,10.382,31.063L10.382,31.063z M39.618,47.124c-3.384,0-6.135-2.752-6.135-6.136
		c0-3.385,2.751-6.136,6.135-6.136c3.385,0,6.136,2.751,6.136,6.136C45.754,44.372,43.003,47.124,39.618,47.124L39.618,47.124z
		 M39.618,47.124"/>
</g>
</svg>
