<svg width="24" height="18" viewBox="0 0 24 18" fill="none" xmlns="http://www.w3.org/2000/svg">
<path d="M23.9821 2.17009C23.9821 2.14267 24.001 2.11598 23.9998 2.08887L16.6758 9.14591L23.991 15.9775C23.9953 15.9287 23.9821 15.8795 23.9821 15.8297V2.17009Z" fill="#484848"/>
<path d="M15.5579 10.2319L12.568 13.1086C12.4167 13.2541 12.2213 13.3271 12.0258 13.3271C11.8343 13.3271 11.6429 13.2572 11.4927 13.1172L8.51092 10.3387L1.14795 17.4358C1.32698 17.5001 1.51915 17.5501 1.7204 17.5501H22.3313C22.6301 17.5501 22.9104 17.459 23.1541 17.3233L15.5579 10.2319Z" fill="#484848"/>
<path d="M12.0173 11.4682L23.1947 0.701104C22.9416 0.550641 22.6471 0.449707 22.3313 0.449707H1.72045C1.30931 0.449707 0.932578 0.609346 0.63916 0.852818L12.0173 11.4682Z" fill="#484848"/>
<path d="M0 2.43237V15.8295C0 15.9833 0.0353478 16.1316 0.0737194 16.2733L7.34535 9.27087L0 2.43237Z" fill="#484848"/>
</svg>
