<?xml version="1.0" encoding="iso-8859-1"?>
<!-- Generator: Adobe Illustrator 19.0.1, SVG Export Plug-In . SVG Version: 6.00 Build 0)  -->
<svg version="1.1" id="Capa_1" xmlns="http://www.w3.org/2000/svg" xmlns:xlink="http://www.w3.org/1999/xlink" x="0px" y="0px"
	 viewBox="182 372 50 50" style="enable-background:new 182 372 50 50;" xml:space="preserve">
<g>
	<path style="fill:#EE650D;" d="M194.5,375.125V372h-10.938c-0.863,0-1.563,0.7-1.563,1.563V384.5h3.125v-7.172l14.516,14.516
		l2.203-2.203l-14.516-14.516H194.5z"/>
	<path style="fill:#EE650D;" d="M230.438,372H219.5v3.125h7.172l-14.516,14.516l2.203,2.203l14.516-14.516v7.172H232v-10.938
		C232,372.7,231.3,372,230.438,372z"/>
	<path style="fill:#EE650D;" d="M228.875,416.672l-14.516-14.516l-2.203,2.203l14.516,14.516H219.5V422h10.938
		c0.863,0,1.563-0.7,1.563-1.563V409.5h-3.125V416.672z"/>
	<path style="fill:#EE650D;" d="M199.641,402.141l-14.516,14.531V409.5H182v10.938c0,0.863,0.7,1.563,1.563,1.563H194.5v-3.125
		h-7.172l14.516-14.516L199.641,402.141z"/>
</g>
</svg>
