<?xml version="1.0" encoding="iso-8859-1"?>
<!-- Generator: Adobe Illustrator 19.0.1, SVG Export Plug-In . SVG Version: 6.00 Build 0)  -->
<svg version="1.1" id="Layer_1" xmlns="http://www.w3.org/2000/svg" xmlns:xlink="http://www.w3.org/1999/xlink" x="0px" y="0px"
	 viewBox="182 372 50 50" style="enable-background:new 182 372 50 50;" xml:space="preserve">
<path style="fill:#EE650D;" d="M231.189,394.647c-2.806-3.598-6.441-6.574-10.511-8.606c-4.155-2.075-8.625-3.151-13.291-3.207
	c-0.128-0.003-0.645-0.003-0.773,0c-4.666,0.057-9.136,1.133-13.291,3.207c-4.07,2.032-7.705,5.008-10.511,8.606
	c-1.081,1.386-1.081,3.322,0,4.708c2.806,3.598,6.441,6.574,10.511,8.606c4.155,2.075,8.625,3.151,13.291,3.207
	c0.128,0.004,0.645,0.004,0.773,0c4.666-0.056,9.136-1.133,13.291-3.207c4.07-2.032,7.705-5.008,10.511-8.606
	C232.27,397.968,232.27,396.033,231.189,394.647z M207,409.14c-6.694,0-12.139-5.445-12.139-12.139s5.445-12.139,12.139-12.139
	c6.694,0,12.139,5.445,12.139,12.139S213.694,409.14,207,409.14z M194.231,406.141c-3.801-1.898-7.195-4.677-9.816-8.037
	c-0.507-0.65-0.507-1.557,0-2.206c2.621-3.36,6.015-6.14,9.816-8.037c1.079-0.539,2.182-1.005,3.305-1.399
	c-2.888,2.596-4.708,6.359-4.708,10.54c0,4.181,1.82,7.944,4.709,10.54C196.413,407.146,195.31,406.68,194.231,406.141z
	 M229.585,398.104c-2.621,3.36-6.015,6.14-9.816,8.037c-1.078,0.538-2.18,1.002-3.301,1.396c2.887-2.596,4.705-6.358,4.705-10.537
	c0-4.181-1.82-7.944-4.709-10.541c1.123,0.395,2.226,0.861,3.306,1.4c3.801,1.898,7.195,4.677,9.816,8.037
	C230.092,396.547,230.092,397.454,229.585,398.104z"/>
<path style="fill:#EE650D;" d="M207,391.806c-2.865,0-5.195,2.33-5.195,5.195s2.33,5.195,5.195,5.195
	c2.865,0,5.195-2.33,5.195-5.195S209.864,391.806,207,391.806z M207,400.161c-1.743,0-3.161-1.418-3.161-3.161
	s1.418-3.161,3.161-3.161c1.743,0,3.161,1.418,3.161,3.161S208.743,400.161,207,400.161z"/>
</svg>
