<?xml version="1.0" encoding="iso-8859-1"?>
<!-- Generator: Adobe Illustrator 19.0.1, SVG Export Plug-In . SVG Version: 6.00 Build 0)  -->
<svg version="1.1" id="Layer_1" xmlns="http://www.w3.org/2000/svg" xmlns:xlink="http://www.w3.org/1999/xlink" x="0px" y="0px"
	 viewBox="-100 104 48 44" style="enable-background:new -100 104 48 44;" xml:space="preserve">
<g>
	<path style="fill:#484848;" d="M-62.379,127.199v-7.195c0.031-5.484-3.656-9.125-6.824-10.57c-0.91-0.418-1.844-0.738-2.797-0.973
		V108c0-2.207-1.793-4-4-4s-4,1.793-4,4v0.528c-0.855,0.234-1.699,0.535-2.516,0.91c-3.504,1.617-7.05,5.508-7.086,10.562v7.199
		c0,5.11-1.804,9.497-5.363,13.036c-0.211,0.211-0.289,0.519-0.199,0.804c0.09,0.289,0.332,0.5,0.629,0.551l7.594,1.309
		c1.414,0.246,2.714,0.445,3.953,0.609c1.398,2.738,4.14,4.492,7.133,4.492c2.996,0,5.738-1.758,7.132-4.492
		c1.235-0.164,2.532-0.363,3.938-0.609l7.594-1.309c0.293-0.051,0.535-0.262,0.625-0.551c0.093-0.281,0.015-0.593-0.2-0.804
		C-60.492,136.528-62.379,132.145-62.379,127.199L-62.379,127.199z M-78.398,108c0-1.324,1.074-2.398,2.398-2.398
		c1.324,0,2.398,1.074,2.398,2.398v0.145c-1.593-0.227-3.21-0.219-4.796,0.039C-78.398,108.184-78.398,108-78.398,108z
		 M-75.855,146.399c-2.024,0-3.918-1.004-5.133-2.653c1.789,0.188,3.457,0.278,5.125,0.278c1.675,0,3.351-0.09,5.144-0.278
		C-71.934,145.395-73.828,146.399-75.855,146.399L-75.855,146.399z M-65.055,141.324c-1.535,0.262-2.941,0.477-4.273,0.649h-0.004
		c-0.586,0.074-1.156,0.137-1.715,0.195c-0.004,0-0.008,0-0.012,0c-0.511,0.051-1.011,0.094-1.507,0.129
		c-0.09,0.004-0.184,0.012-0.278,0.016c-0.426,0.031-0.851,0.05-1.269,0.066c-0.086,0.004-0.172,0.012-0.258,0.012
		c-0.996,0.035-1.977,0.035-2.973,0c-0.09,0-0.179-0.008-0.265-0.012c-0.414-0.016-0.832-0.035-1.254-0.062
		c-0.098-0.008-0.199-0.016-0.301-0.02c-0.477-0.035-0.965-0.074-1.457-0.125c-0.02-0.004-0.039-0.004-0.055-0.004
		c-0.554-0.058-1.121-0.121-1.699-0.195h-0.008c-1.336-0.168-2.746-0.387-4.289-0.652l-6.129-1.055
		c3.188-3.645,4.801-8.031,4.801-13.067v-7.195c0.027-4.348,3.109-7.707,6.152-9.113c0.907-0.414,1.844-0.727,2.797-0.945
		c0.008,0,0.02,0,0.028-0.004c1.968-0.442,4.066-0.461,6.062-0.051c0.012,0,0.02-0.004,0.031-0.004c1.043,0.219,2.071,0.547,3.059,1
		c2.953,1.351,5.918,4.687,5.891,9.113v7.199c0,4.829,1.738,9.317,5.05,13.067L-65.055,141.324z"/>
	<path style="fill:#484848;" d="M-70.867,113.071c-3.098-1.418-6.895-1.418-9.973,0c-1.758,0.812-4.734,3.179-4.762,6.925
		c0,0.442,0.356,0.801,0.797,0.805h0.004c0.442,0,0.797-0.355,0.801-0.797c0.02-2.941,2.414-4.828,3.828-5.48
		c2.664-1.227,5.957-1.227,8.641,0c0.402,0.183,0.875,0.007,1.058-0.395C-70.289,113.727-70.465,113.254-70.867,113.071
		L-70.867,113.071z"/>
	<path style="fill:#484848;" d="M-96.16,120.235c-0.313-0.313-0.817-0.313-1.129,0c-1.75,1.746-2.711,4.074-2.711,6.55
		c0,2.481,0.961,4.805,2.711,6.555c0.156,0.156,0.359,0.234,0.566,0.234c0.203,0,0.411-0.078,0.563-0.234
		c0.316-0.312,0.316-0.82,0-1.133c-1.445-1.445-2.238-3.371-2.238-5.422c0-2.05,0.793-3.976,2.238-5.418
		C-95.848,121.055-95.848,120.547-96.16,120.235L-96.16,120.235z"/>
	<path style="fill:#484848;" d="M-93.355,131.754c0.203,0,0.41-0.082,0.566-0.234c0.312-0.317,0.312-0.821,0-1.133
		c-2.047-2.047-2.047-5.375,0-7.422c0.312-0.312,0.312-0.816,0-1.129c-0.313-0.312-0.82-0.312-1.133,0
		c-2.668,2.668-2.668,7.012,0,9.684C-93.766,131.676-93.562,131.754-93.355,131.754L-93.355,131.754z"/>
	<path style="fill:#484848;" d="M-54.711,120.235c-0.312-0.313-0.816-0.313-1.129,0c-0.316,0.312-0.316,0.82,0,1.132
		c1.445,1.446,2.238,3.368,2.238,5.418c0,2.051-0.793,3.977-2.238,5.422c-0.316,0.313-0.316,0.821,0,1.133
		c0.152,0.156,0.36,0.234,0.563,0.234c0.207,0,0.41-0.078,0.566-0.234c1.75-1.75,2.711-4.074,2.711-6.555
		C-52,124.309-52.961,121.981-54.711,120.235L-54.711,120.235z"/>
	<path style="fill:#484848;" d="M-59.211,121.836c-0.312,0.313-0.312,0.817,0,1.129c2.047,2.047,2.047,5.375,0,7.422
		c-0.312,0.312-0.312,0.816,0,1.133c0.156,0.152,0.363,0.234,0.566,0.234c0.207,0,0.411-0.082,0.567-0.234
		c2.668-2.672,2.668-7.016,0-9.684C-58.391,121.524-58.898,121.524-59.211,121.836L-59.211,121.836z"/>
</g>
</svg>
