<?xml version="1.0" encoding="iso-8859-1"?>
<!-- Generator: Adobe Illustrator 19.0.1, SVG Export Plug-In . SVG Version: 6.00 Build 0)  -->
<svg version="1.1" id="Layer_1" xmlns="http://www.w3.org/2000/svg" xmlns:xlink="http://www.w3.org/1999/xlink" x="0px" y="0px"
	 viewBox="0 0 21.969 16.5" style="enable-background:new 0 0 21.969 16.5;" xml:space="preserve">
<g>
	<g>
		<defs>
			<rect id="SVGID_1_" x="0.781" y="0.188" width="21" height="16"/>
		</defs>
		<clipPath id="SVGID_2_">
			<use xlink:href="#SVGID_1_"  style="overflow:visible;"/>
		</clipPath>
		<path style="clip-path:url(#SVGID_2_);fill:#DADADA;" d="M1.019,8.988c-0.16-0.16-0.238-0.403-0.238-0.563
			c0-0.16,0.078-0.398,0.238-0.558L2.14,6.746c0.321-0.321,0.801-0.321,1.121,0L3.34,6.828l4.402,4.718
			c0.16,0.161,0.398,0.161,0.559,0L19.019,0.425h0.082c0.321-0.316,0.801-0.316,1.121,0l1.118,1.121c0.32,0.321,0.32,0.801,0,1.121
			L8.543,15.949c-0.16,0.16-0.321,0.238-0.563,0.238c-0.238,0-0.398-0.078-0.558-0.238L1.179,9.227L1.019,8.988z M1.019,8.988"/>
	</g>
</g>
</svg>
