<svg width="20" height="24" viewBox="0 0 20 24" fill="none" xmlns="http://www.w3.org/2000/svg">
<path d="M10.0001 11.7376C12.6685 11.7376 14.8318 9.11006 14.8318 5.86882C14.8318 2.62752 14.1216 0 10.0001 0C5.87861 0 5.16821 2.62752 5.16821 5.86882C5.16821 9.11006 7.33157 11.7376 10.0001 11.7376Z" fill="#233034"/>
<path d="M0.873753 20.6985C0.87293 20.5009 0.872107 20.6428 0.873753 20.6985V20.6985Z" fill="#233034"/>
<path d="M19.1257 20.8529C19.1283 20.7988 19.1266 20.4775 19.1257 20.8529V20.8529Z" fill="#233034"/>
<path d="M19.1154 20.4616C19.0259 14.8153 18.2885 13.2064 12.6455 12.188C12.6455 12.188 11.8512 13.2002 9.99977 13.2002C8.14835 13.2002 7.35388 12.188 7.35388 12.188C1.77251 13.1953 0.990244 14.7803 0.887387 20.2782C0.878952 20.7271 0.875044 20.7507 0.873535 20.6986C0.873878 20.7962 0.874289 20.9769 0.874289 21.2918C0.874289 21.2918 2.21774 24.0001 9.99977 24.0001C17.7817 24.0001 19.1253 21.2918 19.1253 21.2918C19.1253 21.0895 19.1254 20.9487 19.1256 20.853C19.1241 20.8852 19.1211 20.8228 19.1154 20.4616Z" fill="#233034"/>
</svg>
