<?xml version="1.0" encoding="iso-8859-1"?>
<!-- Generator: Adobe Illustrator 19.0.1, SVG Export Plug-In . SVG Version: 6.00 Build 0)  -->
<svg version="1.1" id="Layer_1" xmlns="http://www.w3.org/2000/svg" xmlns:xlink="http://www.w3.org/1999/xlink" x="0px" y="0px"
	 viewBox="0 0 50 50" style="enable-background:new 0 0 50 50;" xml:space="preserve">
<g>
	<g>
		<defs>
			<rect id="SVGID_1_" x="2" y="3" width="45.84" height="46"/>
		</defs>
		<clipPath id="SVGID_2_">
			<use xlink:href="#SVGID_1_"  style="overflow:visible;"/>
		</clipPath>
		<path style="clip-path:url(#SVGID_2_);fill:#FFFFFF;" d="M46.27,38.738l-6.993-6.996c-1.394-1.387-3.699-1.344-5.14,0.098
			l-3.524,3.523c-0.222-0.121-0.453-0.25-0.695-0.386c-2.227-1.235-5.27-2.922-8.477-6.129c-3.214-3.215-4.906-6.266-6.14-8.493
			c-0.133-0.234-0.258-0.46-0.379-0.679l2.363-2.36l1.164-1.164c1.442-1.445,1.485-3.75,0.094-5.14l-6.996-6.996
			C10.16,2.625,7.852,2.668,6.406,4.113L4.438,6.094l0.05,0.054c-0.66,0.844-1.211,1.817-1.621,2.864
			c-0.379,1-0.617,1.953-0.722,2.906C1.219,19.574,4.719,26.57,14.211,36.066c13.125,13.121,23.703,12.133,24.16,12.082
			c0.992-0.117,1.945-0.355,2.914-0.73c1.039-0.406,2.012-0.957,2.852-1.617l0.043,0.039l2-1.957
			C47.617,42.437,47.66,40.133,46.27,38.738L46.27,38.738z M46.27,38.738"/>
	</g>
</g>
</svg>
