<svg width="16" height="16" viewBox="0 0 16 16" fill="none" xmlns="http://www.w3.org/2000/svg">
<path d="M14.6195 13.4953L13.4749 11.5873C12.9462 10.7067 12.6669 9.698 12.6669 8.67134V7C12.6669 4.89 11.2589 3.10534 9.33351 2.53V1.33334C9.33351 0.598 8.73551 0 8.00017 0C7.26482 0 6.66682 0.598 6.66682 1.33334V2.53C4.74151 3.10534 3.33351 4.89 3.33351 7V8.67134C3.33351 9.698 3.05417 10.706 2.52617 11.5867L1.38151 13.4947C1.31951 13.598 1.31817 13.726 1.37751 13.8307C1.43685 13.9353 1.54685 14 1.66685 14H14.3335C14.4535 14 14.5642 13.9354 14.6235 13.8314C14.6829 13.7273 14.6809 13.598 14.6195 13.4953Z" fill="#EE650D"/>
<path d="M5.90039 14.6667C6.27639 15.4521 7.07239 16.0001 7.9997 16.0001C8.92702 16.0001 9.72305 15.4521 10.099 14.6667H5.90039Z" fill="#EE650D"/>
</svg>
