<svg width="24" height="24" viewBox="0 0 24 24" fill="none" xmlns="http://www.w3.org/2000/svg">
<g clip-path="url(#clip0)">
<path d="M23.4619 18.967L19.7555 15.2602C19.0173 14.5249 17.7947 14.5473 17.0307 15.3115L15.1634 17.1784C15.0455 17.1134 14.9233 17.0455 14.795 16.9734C13.6158 16.32 12.0019 15.4245 10.3035 13.725C8.60019 12.0218 7.70384 10.4054 7.04846 9.22547C6.97931 9.10046 6.91305 8.97994 6.84761 8.86548L8.10085 7.6141L8.71699 6.9972C9.48213 6.23185 9.50323 5.00964 8.76671 4.27222L5.06028 0.56497C4.32376 -0.171418 3.10065 -0.149079 2.33551 0.616269L1.29091 1.66686L1.31946 1.6952C0.969189 2.14214 0.676495 2.65761 0.458681 3.21349C0.257898 3.74261 0.132891 4.24753 0.0757314 4.75349C-0.413678 8.8108 1.4404 12.5189 6.47211 17.5507C13.4275 24.5055 19.0326 23.9801 19.2744 23.9545C19.801 23.8915 20.3057 23.7657 20.8187 23.5665C21.3697 23.3512 21.8848 23.059 22.3315 22.7094L22.3543 22.7297L23.4126 21.6935C24.1761 20.9283 24.1981 19.7056 23.4619 18.967Z" fill="#EE650D"/>
</g>
<defs>
<clipPath id="clip0">
<rect width="24" height="24" fill="white"/>
</clipPath>
</defs>
</svg>
