<svg width="24" height="24" viewBox="0 0 24 24" fill="none" xmlns="http://www.w3.org/2000/svg">
<g clip-path="url(#clip0)">
<path d="M6.0768 24C4.7533 24 3.50901 23.4846 2.57318 22.5488C0.641295 20.6169 0.641295 17.4734 2.57318 15.5415L13.6904 4.42429C15.0021 3.11255 17.1366 3.11255 18.4483 4.42429C19.76 5.73604 19.76 7.87044 18.4483 9.18218L10.2709 17.3595C9.94602 17.6845 9.41917 17.6845 9.09423 17.3595C8.76929 17.0346 8.76929 16.5078 9.09423 16.1829L17.2716 8.00546C17.9345 7.34254 17.9345 6.26388 17.2716 5.60097C16.9504 5.2798 16.5235 5.10296 16.0693 5.10296C15.6152 5.10296 15.1882 5.2798 14.8671 5.60097L3.74986 16.7182C2.46679 18.0013 2.46679 20.089 3.74986 21.3721C4.37145 21.9936 5.19783 22.3359 6.0768 22.3359C6.95577 22.3359 7.78221 21.9936 8.40375 21.3721L19.7819 9.99392C20.7039 9.07197 21.2116 7.8462 21.2116 6.54234C21.2116 5.23847 20.7039 4.01271 19.7819 3.09075C17.8786 1.18749 14.7819 1.18754 12.8787 3.09075L4.4404 11.529C4.11551 11.8539 3.58866 11.8539 3.26372 11.529C2.93878 11.204 2.93878 10.6772 3.26372 10.3523L11.702 1.91403C14.2541 -0.638009 18.4065 -0.638009 20.9586 1.91403C22.1949 3.15027 22.8757 4.794 22.8757 6.54234C22.8757 8.29068 22.1949 9.93435 20.9586 11.1707L9.58042 22.5488C8.64459 23.4846 7.4003 24 6.0768 24Z" fill="#DADADA"/>
</g>
<defs>
<clipPath id="clip0">
<rect width="24" height="24" fill="white"/>
</clipPath>
</defs>
</svg>
