<svg width="24" height="24" viewBox="0 0 24 24" fill="none" xmlns="http://www.w3.org/2000/svg">
<path d="M11.9999 5.33337C13.4727 5.33337 14.6666 4.13946 14.6666 2.66669C14.6666 1.19392 13.4727 0 11.9999 0C10.5272 0 9.33325 1.19392 9.33325 2.66669C9.33325 4.13946 10.5272 5.33337 11.9999 5.33337Z" fill="#233034"/>
<path d="M11.9999 14.6669C13.4727 14.6669 14.6666 13.473 14.6666 12.0002C14.6666 10.5274 13.4727 9.3335 11.9999 9.3335C10.5272 9.3335 9.33325 10.5274 9.33325 12.0002C9.33325 13.473 10.5272 14.6669 11.9999 14.6669Z" fill="#233034"/>
<path d="M11.9999 23.9999C13.4727 23.9999 14.6666 22.8059 14.6666 21.3332C14.6666 19.8604 13.4727 18.6665 11.9999 18.6665C10.5272 18.6665 9.33325 19.8604 9.33325 21.3332C9.33325 22.8059 10.5272 23.9999 11.9999 23.9999Z" fill="#233034"/>
</svg>
