<?xml version="1.0" encoding="iso-8859-1"?>
<!-- Generator: Adobe Illustrator 19.0.1, SVG Export Plug-In . SVG Version: 6.00 Build 0)  -->
<svg version="1.1" id="Layer_1" xmlns="http://www.w3.org/2000/svg" xmlns:xlink="http://www.w3.org/1999/xlink" x="0px" y="0px"
	 viewBox="182 372 50 50" style="enable-background:new 182 372 50 50;" xml:space="preserve">
<path style="fill:#EE650D;" d="M231.919,405.69c0.077-0.206,0.104-0.433,0.033-0.662l-4.119-13.385v-12.35
	c0-2.871-2.335-5.208-5.208-5.208h-31.25c-2.873,0-5.208,2.337-5.208,5.208v12.35l-4.119,13.385
	c-0.071,0.227-0.044,0.454,0.033,0.662c-0.05,0.221-0.081,0.448-0.081,0.685v8.333v4.167c0,0.575,0.467,1.042,1.042,1.042h4.167
	c0.575,0,1.042-0.467,1.042-1.042v-3.125h37.5v3.125c0,0.575,0.467,1.042,1.042,1.042h4.167c0.575,0,1.042-0.467,1.042-1.042v-4.167
	v-8.333C232,406.138,231.969,405.91,231.919,405.69z M184.083,413.667v-7.292c0-0.575,0.469-1.042,1.042-1.042h43.75
	c0.573,0,1.042,0.467,1.042,1.042v7.292H184.083z M187.977,392.833h3.135c0.11,0.313,0.254,0.612,0.465,0.883
	c0.6,0.763,1.498,1.2,2.467,1.2h7.748c1.356,0,2.502-0.875,2.933-2.083h4.55c0.431,1.21,1.577,2.083,2.933,2.083h7.748
	c0.969,0,1.865-0.438,2.465-1.2c0.21-0.269,0.354-0.571,0.465-0.883h3.137l3.217,10.454c-0.121-0.015-0.24-0.038-0.365-0.038h-43.75
	c-0.125,0-0.244,0.023-0.362,0.038L187.977,392.833z M202.835,391.781c0,0.004-0.002,0.006-0.002,0.01c0,0.002,0,0.004,0,0.004
	c-0.002,0.573-0.469,1.038-1.04,1.038h-7.748c-0.325,0-0.623-0.146-0.823-0.4c-0.2-0.256-0.269-0.583-0.19-0.896l1.042-4.167
	c0.117-0.462,0.531-0.788,1.012-0.788h6.706c0.573,0,1.042,0.467,1.042,1.042V391.781z M211.167,391.792v-4.167
	c0-0.575,0.469-1.042,1.042-1.042h6.708c0.479,0,0.894,0.323,1.01,0.788l1.042,4.167c0.079,0.315,0.01,0.64-0.19,0.896
	c-0.2,0.254-0.5,0.4-0.823,0.4h-7.748C211.635,392.833,211.167,392.367,211.167,391.792z M188.25,379.292
	c0-1.723,1.402-3.125,3.125-3.125h31.25c1.723,0,3.125,1.402,3.125,3.125v11.458h-2.831l-0.971-3.883
	c-0.35-1.394-1.598-2.367-3.033-2.367h-6.706c-1.723,0-3.125,1.402-3.125,3.125v3.125h-4.167v-3.123
	c0-1.723-1.402-3.125-3.125-3.125h-6.706c-1.435,0-2.683,0.975-3.033,2.367l-0.971,3.881h-2.831V379.292z M186.167,417.833h-2.083
	v-2.083h2.083V417.833z M227.833,417.833v-2.083h2.083v2.083H227.833z"/>
</svg>
