<svg width="24" height="22" viewBox="0 0 24 22" fill="none" xmlns="http://www.w3.org/2000/svg">
<path d="M22.0408 1.95918C20.8163 0.734694 19.102 0 17.3878 0C15.551 0 13.9592 0.734694 12.7347 1.95918L12 2.57143L11.3878 1.95918C10.1633 0.734694 8.44898 0 6.61225 0C4.89796 0 3.18367 0.612245 1.95918 1.95918C0.734694 3.18367 0 4.89796 0 6.61225C0 8.44898 0.734694 10.0408 1.95918 11.2653L11.5102 20.8163C11.6327 20.9388 11.8776 21.0612 12 21.0612C12.1225 21.0612 12.3673 20.9388 12.4898 20.8163L22.0408 11.2653C23.2653 10.0408 24 8.32653 24 6.61225C24 4.89796 23.3878 3.18367 22.0408 1.95918Z" fill="#484848"/>
</svg>
