<svg width="24" height="24" viewBox="0 0 24 24" fill="none" xmlns="http://www.w3.org/2000/svg">
<path d="M19.5999 4.8V0H2.3999V22H3.5999V1.2H15.9999L19.5999 4.8Z" fill="white"/>
<path d="M15.7655 2H4.3999V24H21.5999V7.8344L15.7655 2ZM7.9999 6.8H11.9999C12.2207 6.8 12.3999 6.9788 12.3999 7.2C12.3999 7.4212 12.2207 7.6 11.9999 7.6H7.9999C7.7791 7.6 7.5999 7.4212 7.5999 7.2C7.5999 6.9788 7.7791 6.8 7.9999 6.8ZM17.9999 20.4H7.9999C7.7791 20.4 7.5999 20.2212 7.5999 20C7.5999 19.7788 7.7791 19.6 7.9999 19.6H17.9999C18.2207 19.6 18.3999 19.7788 18.3999 20C18.3999 20.2212 18.2207 20.4 17.9999 20.4ZM17.9999 17.2H7.9999C7.7791 17.2 7.5999 17.0212 7.5999 16.8C7.5999 16.5788 7.7791 16.4 7.9999 16.4H17.9999C18.2207 16.4 18.3999 16.5788 18.3999 16.8C18.3999 17.0212 18.2207 17.2 17.9999 17.2ZM17.9999 14H7.9999C7.7791 14 7.5999 13.8212 7.5999 13.6C7.5999 13.3788 7.7791 13.2 7.9999 13.2H17.9999C18.2207 13.2 18.3999 13.3788 18.3999 13.6C18.3999 13.8212 18.2207 14 17.9999 14ZM17.9999 10.8H7.9999C7.7791 10.8 7.5999 10.6212 7.5999 10.4C7.5999 10.1788 7.7791 10 7.9999 10H17.9999C18.2207 10 18.3999 10.1788 18.3999 10.4C18.3999 10.6212 18.2207 10.8 17.9999 10.8ZM15.1999 8.4V2.8L20.7999 8.4H15.1999Z" fill="white"/>
</svg>
