<svg width="24" height="24" viewBox="0 0 24 24" fill="none" xmlns="http://www.w3.org/2000/svg">
<path d="M12 24C5.38293 24 0 18.6171 0 12C0 5.38293 5.38293 0 12 0C18.6171 0 24 5.38293 24 12C24 18.6171 18.6171 24 12 24ZM12 1.5C6.21002 1.5 1.5 6.21002 1.5 12C1.5 17.79 6.21002 22.5 12 22.5C17.79 22.5 22.5 17.79 22.5 12C22.5 6.21002 17.79 1.5 12 1.5Z" fill="#EE650D"/>
<path fill-rule="evenodd" clip-rule="evenodd" d="M11.9617 18.9989C11.9744 18.9995 11.9873 18.9999 12.0002 18.9999C12.0391 18.9999 12.0772 18.9969 12.1145 18.9912C12.2669 18.968 12.4136 18.8978 12.5322 18.78L16.5323 14.78C16.8253 14.4869 16.8253 14.0119 16.5323 13.7189C16.2393 13.426 15.7642 13.426 15.4712 13.7189L12.7502 16.4399V5.75C12.7502 5.336 12.4142 5 12.0002 5C11.5862 5 11.2502 5.336 11.2502 5.75V16.438L8.53131 13.7189C8.23816 13.426 7.76318 13.426 7.47021 13.7189C7.17725 14.0119 7.17725 14.4869 7.47021 14.78L11.457 18.7668C11.478 18.7889 11.5004 18.8097 11.524 18.8291C11.6285 18.9157 11.751 18.9692 11.878 18.9899C11.9054 18.9944 11.9333 18.9975 11.9617 18.9989Z" fill="#EE650D"/>
</svg>
