<?xml version="1.0" encoding="iso-8859-1"?>
<!-- Generator: Adobe Illustrator 19.0.1, SVG Export Plug-In . SVG Version: 6.00 Build 0)  -->
<svg version="1.1" id="Layer_1" xmlns="http://www.w3.org/2000/svg" xmlns:xlink="http://www.w3.org/1999/xlink" x="0px" y="0px"
	 viewBox="0 0 50 50" style="enable-background:new 0 0 50 50;" xml:space="preserve">
<g>
	<g>
		<path style="fill:#FFFFFF;" d="M45.961,7.102c-2.618-2.618-6.084-4.05-9.784-4.05c-3.699,0-7.176,1.442-9.794,4.06L25.016,8.48
			l-1.389-1.389c-2.618-2.618-6.105-4.07-9.805-4.07c-3.689,0-7.165,1.441-9.773,4.049C1.431,9.688-0.01,13.165,0,16.864
			c0,3.699,1.452,7.165,4.07,9.784l19.907,19.907c0.275,0.276,0.646,0.424,1.007,0.424c0.361,0,0.732-0.138,1.007-0.414
			L45.94,26.691c2.618-2.618,4.06-6.095,4.06-9.795C50.011,13.197,48.58,9.72,45.961,7.102L45.961,7.102z M43.926,24.666
			L24.984,43.534l-18.899-18.9c-2.078-2.078-3.222-4.834-3.222-7.77c0-2.936,1.134-5.692,3.212-7.759
			c2.067-2.067,4.823-3.212,7.749-3.212c2.936,0,5.703,1.145,7.78,3.222l2.396,2.395c0.562,0.562,1.463,0.562,2.025,0l2.374-2.374
			c2.078-2.078,4.844-3.222,7.77-3.222c2.925,0,5.681,1.145,7.759,3.212c2.077,2.078,3.212,4.834,3.212,7.77
			C47.149,19.832,46.004,22.588,43.926,24.666L43.926,24.666z M43.926,24.666"/>
	</g>
</g>
</svg>
