<svg width="24" height="24" viewBox="0 0 24 24" fill="none" xmlns="http://www.w3.org/2000/svg">
<path d="M21.9285 20.243L20.2115 17.381C19.4186 16.06 18.9995 14.547 18.9995 13.007V10.5C18.9995 7.335 16.8875 4.65802 13.9995 3.795V2.00002C13.9995 0.897 13.1025 0 11.9995 0C10.8965 0 9.9995 0.897 9.9995 2.00002V3.795C7.11153 4.65802 4.99953 7.335 4.99953 10.5V13.007C4.99953 14.547 4.58052 16.059 3.78852 17.38L2.07153 20.242C1.97853 20.397 1.97652 20.589 2.06553 20.746C2.15455 20.903 2.31955 21 2.49955 21H21.4995C21.6795 21 21.8455 20.9031 21.9345 20.7471C22.0235 20.591 22.0205 20.397 21.9285 20.243Z" fill="#233034"/>
<path d="M8.85083 22C9.41483 23.178 10.6088 24 11.9998 24C13.3908 24 14.5848 23.178 15.1488 22H8.85083Z" fill="#233034"/>
</svg>
