<?xml version="1.0" encoding="iso-8859-1"?>
<!-- Generator: Adobe Illustrator 19.0.1, SVG Export Plug-In . SVG Version: 6.00 Build 0)  -->
<svg version="1.1" id="Layer_1" xmlns="http://www.w3.org/2000/svg" xmlns:xlink="http://www.w3.org/1999/xlink" x="0px" y="0px"
	 viewBox="182 372 50 50" style="enable-background:new 182 372 50 50;" xml:space="preserve">
<g transform="translate(1 1)">
	<path style="fill:#EE650D;" d="M228.5,402.667h-45c-1.417,0-2.5-1.083-2.5-2.5s1.083-2.5,2.5-2.5h45c1.417,0,2.5,1.083,2.5,2.5
		S229.917,402.667,228.5,402.667z M183.5,399.333c-0.5,0-0.833,0.333-0.833,0.833S183,401,183.5,401h45
		c0.5,0,0.833-0.333,0.833-0.833s-0.333-0.833-0.833-0.833H183.5z"/>
	<path style="fill:#EE650D;" d="M219.583,416h-27.167c-2.667,0-5-1.833-5.667-4.417L184.333,402c-0.083-0.25,0-0.5,0.167-0.75
		c0.167-0.167,0.417-0.25,0.667-0.25h41.667c0.25,0,0.5,0.083,0.667,0.333c0.167,0.167,0.25,0.5,0.167,0.75l-2.417,9.583
		C224.583,414.167,222.25,416,219.583,416z M186.25,402.667l2.167,8.5c0.5,1.833,2.167,3.167,4.083,3.167h27.167
		c1.917,0,3.583-1.333,4.083-3.167l2-8.5H186.25z"/>
	<path style="fill:#EE650D;" d="M192.667,419.333c-0.083,0-0.25,0-0.333-0.083c-0.417-0.167-0.583-0.667-0.333-1.083l1.667-3.333
		c0.167-0.417,0.667-0.583,1.083-0.333c0.417,0.167,0.583,0.667,0.333,1.083l-1.667,3.333
		C193.25,419.167,193,419.333,192.667,419.333z"/>
	<path style="fill:#EE650D;" d="M220.167,419.333c-0.333,0-0.583-0.167-0.75-0.5l-1.667-3.333c-0.167-0.417,0-0.917,0.333-1.083
		c0.417-0.167,0.917,0,1.083,0.333l1.667,3.333c0.167,0.417,0,0.917-0.333,1.083C220.417,419.333,220.333,419.333,220.167,419.333z"
		/>
	<path style="fill:#EE650D;" d="M200.167,399.333h-15.833c-0.5,0-0.833-0.333-0.833-0.833c0-2.333,1.833-4.167,4.167-4.167
		c0.75,0,1.5,0.25,2.167,0.583c0.667-1.333,2.083-2.25,3.667-2.25c1.333,0,2.5,0.667,3.333,1.667l0,0
		c2.333,0,4.167,1.833,4.167,4.167C201,399,200.667,399.333,200.167,399.333z M185.333,397.667h13.917
		c-0.333-1-1.25-1.667-2.333-1.667c-0.083,0-0.167,0-0.25,0c-0.333,0.083-0.75-0.083-0.917-0.417c-0.417-0.833-1.25-1.25-2.167-1.25
		c-1.25,0-2.25,0.917-2.5,2.167c-0.083,0.333-0.25,0.583-0.583,0.667c-0.333,0.083-0.667,0-0.833-0.25
		c-0.583-0.583-1.25-0.917-2-0.917C186.583,396,185.667,396.667,185.333,397.667z"/>
	<path style="fill:#EE650D;" d="M227.667,398.5H226v-18.333c0-3.25-2.583-5.833-5.833-5.833c-3.417,0-5,2.917-5,5.833H213.5
		c0-4.417,2.75-7.5,6.667-7.5c4.167,0,7.5,3.333,7.5,7.5V398.5z"/>
	<path style="fill:#EE650D;" d="M211,388.083c-0.5,0-0.833-0.333-0.833-0.833v-0.417c0-0.5,0.333-0.833,0.833-0.833
		s0.833,0.333,0.833,0.833v0.417C211.833,387.75,211.5,388.083,211,388.083z"/>
	<path style="fill:#EE650D;" d="M211,391.917c-0.5,0-0.833-0.333-0.833-0.833v-0.917c0-0.5,0.333-0.833,0.833-0.833
		s0.833,0.333,0.833,0.833v0.917C211.833,391.5,211.5,391.917,211,391.917z"/>
	<path style="fill:#EE650D;" d="M211,395.167c-0.5,0-0.833-0.333-0.833-0.833v-0.417c0-0.5,0.333-0.833,0.833-0.833
		s0.833,0.333,0.833,0.833v0.417C211.833,394.833,211.5,395.167,211,395.167z"/>
	<path style="fill:#EE650D;" d="M214.333,388.083c-0.5,0-0.833-0.333-0.833-0.833v-0.417c0-0.5,0.333-0.833,0.833-0.833
		s0.833,0.333,0.833,0.833v0.417C215.167,387.75,214.833,388.083,214.333,388.083z"/>
	<path style="fill:#EE650D;" d="M214.333,391.917c-0.5,0-0.833-0.333-0.833-0.833v-0.917c0-0.5,0.333-0.833,0.833-0.833
		s0.833,0.333,0.833,0.833v0.917C215.167,391.5,214.833,391.917,214.333,391.917z"/>
	<path style="fill:#EE650D;" d="M214.333,395.167c-0.5,0-0.833-0.333-0.833-0.833v-0.417c0-0.5,0.333-0.833,0.833-0.833
		s0.833,0.333,0.833,0.833v0.417C215.167,394.833,214.833,395.167,214.333,395.167z"/>
	<path style="fill:#EE650D;" d="M217.667,388.083c-0.5,0-0.833-0.333-0.833-0.833v-0.417c0-0.5,0.333-0.833,0.833-0.833
		s0.833,0.333,0.833,0.833v0.417C218.5,387.75,218.167,388.083,217.667,388.083z"/>
	<path style="fill:#EE650D;" d="M217.667,391.917c-0.5,0-0.833-0.333-0.833-0.833v-0.917c0-0.5,0.333-0.833,0.833-0.833
		s0.833,0.333,0.833,0.833v0.917C218.5,391.5,218.167,391.917,217.667,391.917z"/>
	<path style="fill:#EE650D;" d="M217.667,395.167c-0.5,0-0.833-0.333-0.833-0.833v-0.417c0-0.5,0.333-0.833,0.833-0.833
		s0.833,0.333,0.833,0.833v0.417C218.5,394.833,218.167,395.167,217.667,395.167z"/>
	<path style="fill:#EE650D;" d="M217.667,384.333H211c-0.5,0-0.833-0.333-0.833-0.833c0-2.333,1.833-4.167,4.167-4.167
		s4.167,1.833,4.167,4.167C218.5,384,218.167,384.333,217.667,384.333z M212,382.667h4.75c-0.333-1-1.25-1.667-2.333-1.667
		C213.333,381,212.333,381.667,212,382.667z"/>
</g>
</svg>
