<svg width="16" height="16" viewBox="0 0 16 16" fill="none" xmlns="http://www.w3.org/2000/svg">
<path d="M14.6195 13.4953L13.4749 11.5873C12.9462 10.7067 12.6669 9.698 12.6669 8.67134V7C12.6669 4.89 11.2589 3.10534 9.33351 2.53V1.33334C9.33351 0.598 8.73551 0 8.00017 0C7.26482 0 6.66682 0.598 6.66682 1.33334V2.53C4.74151 3.10534 3.33351 4.89 3.33351 7V8.67134C3.33351 9.698 3.05417 10.706 2.52617 11.5867L1.38151 13.4947C1.31951 13.598 1.31817 13.726 1.37751 13.8307C1.43685 13.9353 1.54685 14 1.66685 14H14.3335C14.4535 14 14.5642 13.9354 14.6235 13.8314C14.6829 13.7273 14.6809 13.598 14.6195 13.4953Z" fill="#EE650D"/>
<path d="M8.83351 2.53V2.90243L9.19035 3.00907C10.9107 3.52315 12.1669 5.11797 12.1669 7V8.67134C12.1669 9.78858 12.4708 10.8862 13.0461 11.8446C13.0461 11.8446 13.0461 11.8446 13.0462 11.8447L14.0392 13.5H1.96138L2.95493 11.8439L2.955 11.8438C3.52951 10.8855 3.83351 9.78868 3.83351 8.67134V7C3.83351 5.11797 5.08967 3.52315 6.80998 3.00907L7.16682 2.90243V2.53V1.33334C7.16682 0.874142 7.54097 0.5 8.00017 0.5C8.45937 0.5 8.83351 0.874142 8.83351 1.33334V2.53ZM1.81027 13.7519L1.81041 13.7517C1.81036 13.7518 1.81032 13.7518 1.81027 13.7519L1.66749 13.6663L1.81027 13.7519Z" fill="white" stroke="#EE650D"/>
<path d="M5.90039 14.6666C6.27639 15.452 7.07239 16 7.9997 16C8.92702 16 9.72305 15.452 10.099 14.6666H5.90039Z" fill="#EE650D"/>
</svg>
