<?xml version="1.0" encoding="iso-8859-1"?>
<!-- Generator: Adobe Illustrator 19.0.1, SVG Export Plug-In . SVG Version: 6.00 Build 0)  -->
<svg version="1.1" id="Layer_1" xmlns="http://www.w3.org/2000/svg" xmlns:xlink="http://www.w3.org/1999/xlink" x="0px" y="0px"
	 viewBox="0 0 50 50" style="enable-background:new 0 0 50 50;" xml:space="preserve">
<path style="fill:#EE650D;" d="M41.659,22.97H8.341c0-5.64,4.562-10.219,10.202-10.219H21.4V0.045h7.183v12.706h2.874
	C37.097,12.751,41.659,17.331,41.659,22.97L41.659,22.97z M26.699,27.046V27.03c0-0.94-0.765-1.705-1.709-1.705
	c-0.923,0-1.688,0.782-1.688,1.722c0,0.944,0.765,1.705,1.688,1.705C25.934,28.751,26.699,27.99,26.699,27.046L26.699,27.046z
	 M26.699,41.2v-0.033c0-0.944-0.765-1.693-1.709-1.693c-0.923,0-1.688,0.782-1.688,1.726c0,0.94,0.765,1.705,1.688,1.705
	C25.934,42.905,26.699,42.14,26.699,41.2L26.699,41.2z M26.699,34.129v-0.046c0-0.944-0.765-1.676-1.709-1.676
	c-0.923,0-1.688,0.765-1.688,1.722c0,0.927,0.765,1.693,1.688,1.693C25.934,35.822,26.699,35.057,26.699,34.129L26.699,34.129z
	 M26.699,48.249v-0.017c0-0.944-0.765-1.689-1.709-1.689c-0.923,0-1.688,0.761-1.688,1.705c0,0.94,0.765,1.705,1.688,1.705
	C25.934,49.955,26.699,49.189,26.699,48.249L26.699,48.249z M44.991,47.925c0.878-0.358,1.302-1.348,0.961-2.213l-0.017-0.029
	c-0.358-0.878-1.335-1.302-2.213-0.944c-0.878,0.358-1.281,1.364-0.94,2.225c0.275,0.665,0.911,1.073,1.576,1.073
	C44.571,48.037,44.778,48.004,44.991,47.925L44.991,47.925z M42.653,41.491c0.861-0.341,1.281-1.331,0.94-2.209l-0.017-0.033
	c-0.341-0.878-1.331-1.302-2.208-0.928c-0.878,0.341-1.285,1.348-0.928,2.225c0.262,0.665,0.894,1.073,1.576,1.073
	C42.229,41.62,42.441,41.57,42.653,41.491L42.653,41.491z M40.15,35.123c0.911-0.279,1.414-1.219,1.135-2.13V32.96
	c-0.275-0.894-1.214-1.397-2.109-1.119c-0.911,0.274-1.414,1.231-1.14,2.142c0.212,0.732,0.894,1.202,1.626,1.202
	C39.825,35.186,39.987,35.169,40.15,35.123L40.15,35.123z M37.941,28.639c0.878-0.341,1.298-1.331,0.957-2.209l-0.017-0.033
	c-0.341-0.878-1.331-1.285-2.208-0.928c-0.878,0.341-1.285,1.352-0.94,2.225c0.275,0.67,0.907,1.073,1.589,1.073
	C37.517,28.768,37.746,28.722,37.941,28.639L37.941,28.639z M34.967,49.01c0.927-0.179,1.51-1.069,1.331-1.996v-0.033
	c-0.195-0.928-1.085-1.51-1.996-1.314c-0.927,0.179-1.526,1.085-1.335,2.013c0.166,0.811,0.865,1.364,1.659,1.364
	C34.738,49.044,34.855,49.044,34.967,49.01L34.967,49.01z M33.749,42.285c0.927-0.096,1.61-0.94,1.526-1.867v-0.033
	c-0.096-0.94-0.928-1.622-1.867-1.51c-0.944,0.096-1.626,0.94-1.526,1.884c0.096,0.878,0.828,1.526,1.689,1.526
	C33.636,42.285,33.682,42.285,33.749,42.285L33.749,42.285z M32.854,35.493c0.928-0.191,1.526-1.085,1.331-2.013v-0.033
	c-0.179-0.911-1.069-1.493-1.996-1.298c-0.928,0.179-1.51,1.085-1.331,2.013c0.162,0.811,0.878,1.364,1.672,1.364
	C32.642,35.527,32.742,35.51,32.854,35.493L32.854,35.493z M31.815,28.735c0.911-0.191,1.51-1.085,1.331-2.013l-0.012-0.033
	c-0.179-0.907-1.09-1.51-2-1.314c-0.928,0.179-1.51,1.102-1.331,2.013c0.162,0.815,0.878,1.381,1.672,1.381
	C31.586,28.768,31.702,28.751,31.815,28.735L31.815,28.735z M7.218,46.964l0.017-0.033c0.341-0.861-0.083-1.834-0.961-2.192
	c-0.861-0.341-1.867,0.1-2.225,0.973c-0.341,0.865,0.083,1.855,0.961,2.213c0.212,0.079,0.42,0.112,0.632,0.112
	C6.307,48.037,6.943,47.63,7.218,46.964L7.218,46.964z M9.559,40.547l0.013-0.033c0.358-0.873-0.062-1.851-0.94-2.192
	c-0.878-0.358-1.867,0.083-2.225,0.961c-0.341,0.878,0.079,1.867,0.94,2.209c0.212,0.079,0.424,0.129,0.636,0.129
	C8.665,41.62,9.297,41.212,9.559,40.547L9.559,40.547z M11.963,33.984l0.017-0.05c0.275-0.89-0.245-1.818-1.156-2.092
	c-0.907-0.279-1.851,0.258-2.113,1.152c-0.275,0.911,0.245,1.851,1.14,2.13c0.162,0.046,0.324,0.062,0.487,0.062
	C11.069,35.186,11.751,34.716,11.963,33.984L11.963,33.984z M14.267,27.695v-0.029c0.358-0.878-0.062-1.855-0.94-2.196
	c-0.861-0.358-1.867,0.083-2.225,0.961c-0.341,0.878,0.079,1.867,0.957,2.209c0.196,0.083,0.424,0.129,0.632,0.129
	C13.361,28.768,13.993,28.365,14.267,27.695L14.267,27.695z M17.029,47.679l0.017-0.033c0.179-0.923-0.42-1.801-1.348-1.996
	c-0.911-0.179-1.801,0.437-1.996,1.364c-0.179,0.911,0.403,1.817,1.331,1.996c0.112,0.017,0.229,0.033,0.341,0.033
	C16.168,49.044,16.867,48.491,17.029,47.679L17.029,47.679z M18.119,40.759v-0.033c0.1-0.94-0.582-1.755-1.526-1.851
	c-0.928-0.112-1.772,0.599-1.867,1.543c-0.083,0.928,0.599,1.772,1.526,1.867c0.067,0,0.112,0,0.179,0
	C17.291,42.285,18.023,41.636,18.119,40.759L18.119,40.759z M19.142,34.163v-0.033c0.196-0.923-0.403-1.801-1.331-1.98
	c-0.911-0.212-1.822,0.42-2.013,1.347c-0.179,0.911,0.42,1.818,1.347,1.996c0.096,0.017,0.212,0.033,0.325,0.033
	C18.264,35.527,18.98,34.973,19.142,34.163L19.142,34.163z M20.198,27.387v-0.033c0.196-0.907-0.408-1.801-1.331-1.98
	c-0.911-0.195-1.838,0.437-2.017,1.347c-0.179,0.928,0.424,1.822,1.335,2.013c0.112,0.017,0.225,0.033,0.341,0.033
	C19.321,28.768,20.036,28.203,20.198,27.387L20.198,27.387z M20.198,27.387"/>
</svg>
