<svg width="16" height="16" viewBox="0 0 16 16" fill="none" xmlns="http://www.w3.org/2000/svg">
<path d="M9.3382 2.43168C9.94025 1.78716 10.3475 0.892316 10.236 0C9.36866 0.0309531 8.31746 0.509134 7.69489 1.15361C7.1368 1.72415 6.64819 2.63601 6.77859 3.51082C7.74642 3.57629 8.73516 3.07517 9.3382 2.43168ZM11.1853 8.59404C11.1668 6.59356 12.7692 5.63275 12.8401 5.58632C11.9393 4.22784 10.5364 4.04196 10.0367 4.02099C8.84213 3.89559 7.70745 4.74444 7.10096 4.74444C6.49694 4.74444 5.56264 4.03746 4.57186 4.05645C3.26936 4.0779 2.06922 4.83636 1.40027 6.03843C0.0472247 8.45667 1.05347 12.0389 2.37194 14.0005C3.01647 14.9607 3.78388 16.0379 4.79161 15.999C5.76438 15.96 6.1311 15.352 7.30473 15.352C8.47887 15.352 8.8076 15.999 9.83482 15.9795C10.88 15.96 11.5415 15.0007 12.1806 14.0374C12.92 12.9238 13.2248 11.8456 13.2422 11.7911C13.2198 11.7781 11.2068 10.9863 11.1853 8.59404Z" fill="#484848"/>
</svg>
