<svg width="16" height="16" viewBox="0 0 16 16" fill="none" xmlns="http://www.w3.org/2000/svg">
<path d="M13.2906 1.60494H10.4326V0.52175C10.4326 0.233625 10.199 0 9.91087 0H6.08921C5.80109 0 5.56746 0.233594 5.56746 0.52175V1.60494H2.70949C2.42137 1.60494 2.18774 1.83853 2.18774 2.12669V3.73159C2.18774 4.01972 2.42134 4.25334 2.70949 4.25334H13.2905C13.5787 4.25334 13.8123 4.01975 13.8123 3.73159V2.12669C13.8123 1.8385 13.5787 1.60494 13.2906 1.60494ZM9.38909 1.60494H6.61096V1.04347H9.38909V1.60494Z" fill="#EE650D"/>
<path d="M2.91235 5.29688L3.34498 15.5005C3.35679 15.7798 3.5867 16.0001 3.86623 16.0001H12.134C12.4135 16.0001 12.6434 15.7798 12.6552 15.5005L13.0878 5.29688H2.91235ZM6.42292 13.8784C6.42292 14.1665 6.18932 14.4001 5.90117 14.4001C5.61304 14.4001 5.37942 14.1665 5.37942 13.8784V7.41856C5.37942 7.13044 5.61301 6.89681 5.90117 6.89681C6.18929 6.89681 6.42292 7.13041 6.42292 7.41856V13.8784ZM8.52176 13.8784C8.52176 14.1665 8.28817 14.4001 8.00001 14.4001C7.71185 14.4001 7.47826 14.1665 7.47826 13.8784V7.41856C7.47826 7.13044 7.71185 6.89681 8.00001 6.89681C8.28817 6.89681 8.52176 7.13041 8.52176 7.41856V13.8784ZM10.6206 13.8784C10.6206 14.1665 10.387 14.4001 10.0989 14.4001C9.8107 14.4001 9.5771 14.1665 9.5771 13.8784V7.41856C9.5771 7.13044 9.8107 6.89681 10.0989 6.89681C10.387 6.89681 10.6206 7.13041 10.6206 7.41856V13.8784Z" fill="#EE650D"/>
</svg>
