<?xml version="1.0" encoding="iso-8859-1"?>
<!-- Generator: Adobe Illustrator 19.0.1, SVG Export Plug-In . SVG Version: 6.00 Build 0)  -->
<svg version="1.1" id="Layer_1" xmlns="http://www.w3.org/2000/svg" xmlns:xlink="http://www.w3.org/1999/xlink" x="0px" y="0px"
	 viewBox="0 0 50 50" style="enable-background:new 0 0 50 50;" xml:space="preserve">
<g>
	<path style="fill:#484848;" d="M41.373,10.249h-1.285v-2.86C40.088,3.316,36.772,0,32.699,0H17.187
		c-4.073,0-7.389,3.316-7.389,7.388v2.86H8.627c-4.072,0-7.388,3.316-7.388,7.388v11.917c0,4.073,3.316,7.388,7.388,7.388h1.161
		v9.368c0,2.031,1.658,3.689,3.689,3.689h22.912c2.031,0,3.689-1.658,3.689-3.689v-9.368h1.295c4.073,0,7.388-3.316,7.388-7.388
		V17.637C48.762,13.565,45.446,10.249,41.373,10.249L41.373,10.249z M12.586,7.388c0-2.528,2.062-4.59,4.59-4.59h15.503
		c2.528,0,4.591,2.062,4.591,4.59v2.86H12.586V7.388z M37.28,46.332c0,0.487-0.404,0.891-0.891,0.891H13.477
		c-0.487,0-0.891-0.404-0.891-0.891V30.881H37.28V46.332z M45.964,29.565c0,2.529-2.062,4.591-4.591,4.591h-1.285v-3.275h1.844
		c0.777,0,1.399-0.621,1.399-1.398c0-0.777-0.622-1.399-1.399-1.399H7.736c-0.777,0-1.399,0.622-1.399,1.399
		c0,0.777,0.622,1.398,1.399,1.398h2.062v3.275H8.627c-2.528,0-4.59-2.062-4.59-4.591V17.647c0-2.528,2.062-4.59,4.59-4.59h32.746
		c2.528,0,4.591,2.062,4.591,4.59V29.565z M45.964,29.565"/>
	<path style="fill:#484848;" d="M15.974,37.762h17.813c0.777,0,1.399-0.622,1.399-1.399s-0.621-1.399-1.399-1.399H15.974
		c-0.777,0-1.399,0.621-1.399,1.399S15.207,37.762,15.974,37.762L15.974,37.762z M15.974,37.762"/>
	<path style="fill:#484848;" d="M33.902,40.684H16.078c-0.777,0-1.399,0.622-1.399,1.399c0,0.777,0.621,1.399,1.399,1.399h17.813
		c0.777,0,1.399-0.622,1.399-1.399C35.29,41.306,34.668,40.684,33.902,40.684L33.902,40.684z M33.902,40.684"/>
	<path style="fill:#484848;" d="M41.342,15.741h-2.84c-0.777,0-1.399,0.622-1.399,1.399c0,0.777,0.622,1.399,1.399,1.399h2.84
		c0.777,0,1.398-0.622,1.398-1.399C42.741,16.363,42.119,15.741,41.342,15.741L41.342,15.741z M41.342,15.741"/>
</g>
</svg>
