<?xml version="1.0" encoding="iso-8859-1"?>
<!-- Generator: Adobe Illustrator 19.0.1, SVG Export Plug-In . SVG Version: 6.00 Build 0)  -->
<svg version="1.1" id="Layer_1" xmlns="http://www.w3.org/2000/svg" xmlns:xlink="http://www.w3.org/1999/xlink" x="0px" y="0px"
	 viewBox="0 0 48 44" style="enable-background:new 0 0 48 44;" xml:space="preserve">
<g>
	<path style="fill:#FFFFFF;" d="M37.621,23.199v-7.195c0.031-5.484-3.656-9.125-6.824-10.57C29.887,5.016,28.953,4.696,28,4.461V4
		c0-2.207-1.793-4-4-4c-2.207,0-4,1.793-4,4v0.528c-0.855,0.234-1.699,0.535-2.516,0.91C13.98,7.055,10.434,10.946,10.398,16v7.199
		c0,5.11-1.804,9.497-5.363,13.036c-0.211,0.211-0.289,0.519-0.199,0.804c0.09,0.289,0.332,0.5,0.629,0.551l7.594,1.309
		c1.414,0.246,2.714,0.445,3.953,0.609C18.41,42.246,21.152,44,24.145,44c2.996,0,5.738-1.758,7.132-4.492
		c1.235-0.164,2.532-0.363,3.938-0.609l7.594-1.309c0.293-0.051,0.535-0.262,0.625-0.551c0.093-0.281,0.015-0.593-0.2-0.804
		C39.508,32.528,37.621,28.145,37.621,23.199L37.621,23.199z M21.602,4c0-1.324,1.074-2.398,2.398-2.398
		c1.324,0,2.398,1.074,2.398,2.398v0.145c-1.593-0.227-3.21-0.219-4.796,0.039V4z M24.145,42.399c-2.024,0-3.918-1.004-5.133-2.653
		c1.789,0.188,3.457,0.278,5.125,0.278c1.675,0,3.351-0.09,5.144-0.278C28.066,41.395,26.172,42.399,24.145,42.399L24.145,42.399z
		 M34.945,37.324c-1.535,0.262-2.941,0.477-4.273,0.649h-0.004c-0.586,0.074-1.156,0.137-1.715,0.195c-0.004,0-0.008,0-0.012,0
		c-0.511,0.051-1.011,0.094-1.507,0.129c-0.09,0.004-0.184,0.012-0.278,0.016c-0.426,0.031-0.851,0.05-1.269,0.066
		c-0.086,0.004-0.172,0.012-0.258,0.012c-0.996,0.035-1.977,0.035-2.973,0c-0.09,0-0.179-0.008-0.265-0.012
		c-0.414-0.016-0.832-0.035-1.254-0.062c-0.098-0.008-0.199-0.016-0.301-0.02c-0.477-0.035-0.965-0.074-1.457-0.125
		c-0.02-0.004-0.039-0.004-0.055-0.004c-0.554-0.058-1.121-0.121-1.699-0.195h-0.008c-1.336-0.168-2.746-0.387-4.289-0.652
		l-6.129-1.055C10.387,32.621,12,28.235,12,23.199v-7.195c0.027-4.348,3.109-7.707,6.152-9.113c0.907-0.414,1.844-0.727,2.797-0.945
		c0.008,0,0.02,0,0.028-0.004c1.968-0.442,4.066-0.461,6.062-0.051c0.012,0,0.02-0.004,0.031-0.004c1.043,0.219,2.071,0.547,3.059,1
		c2.953,1.351,5.918,4.687,5.891,9.113v7.199c0,4.829,1.738,9.317,5.05,13.067L34.945,37.324z M34.945,37.324"/>
	<path style="fill:#FFFFFF;" d="M29.133,9.071c-3.098-1.418-6.895-1.418-9.973,0c-1.758,0.812-4.734,3.179-4.762,6.925
		c0,0.442,0.356,0.801,0.797,0.805h0.004c0.442,0,0.797-0.355,0.801-0.797c0.02-2.941,2.414-4.828,3.828-5.48
		c2.664-1.227,5.957-1.227,8.641,0c0.402,0.183,0.875,0.007,1.058-0.395C29.711,9.727,29.535,9.254,29.133,9.071L29.133,9.071z
		 M29.133,9.071"/>
	<path style="fill:#FFFFFF;" d="M3.84,16.235c-0.313-0.313-0.817-0.313-1.129,0C0.961,17.981,0,20.309,0,22.785
		c0,2.481,0.961,4.805,2.711,6.555c0.156,0.156,0.359,0.234,0.566,0.234c0.203,0,0.411-0.078,0.563-0.234
		c0.316-0.312,0.316-0.82,0-1.133c-1.445-1.445-2.238-3.371-2.238-5.422c0-2.05,0.793-3.976,2.238-5.418
		C4.152,17.055,4.152,16.547,3.84,16.235L3.84,16.235z M3.84,16.235"/>
	<path style="fill:#FFFFFF;" d="M6.645,27.754c0.203,0,0.41-0.082,0.566-0.234c0.312-0.317,0.312-0.821,0-1.133
		c-2.047-2.047-2.047-5.375,0-7.422c0.312-0.312,0.312-0.816,0-1.129c-0.313-0.312-0.82-0.312-1.133,0
		c-2.668,2.668-2.668,7.012,0,9.684C6.234,27.676,6.438,27.754,6.645,27.754L6.645,27.754z M6.645,27.754"/>
	<path style="fill:#FFFFFF;" d="M45.289,16.235c-0.312-0.313-0.816-0.313-1.129,0c-0.316,0.312-0.316,0.82,0,1.132
		c1.445,1.446,2.238,3.368,2.238,5.418c0,2.051-0.793,3.977-2.238,5.422c-0.316,0.313-0.316,0.821,0,1.133
		c0.152,0.156,0.36,0.234,0.563,0.234c0.207,0,0.41-0.078,0.566-0.234C47.039,27.59,48,25.266,48,22.785
		C48,20.309,47.039,17.981,45.289,16.235L45.289,16.235z M45.289,16.235"/>
	<path style="fill:#FFFFFF;" d="M40.789,17.836c-0.312,0.313-0.312,0.817,0,1.129c2.047,2.047,2.047,5.375,0,7.422
		c-0.312,0.312-0.312,0.816,0,1.133c0.156,0.152,0.363,0.234,0.566,0.234c0.207,0,0.411-0.082,0.567-0.234
		c2.668-2.672,2.668-7.016,0-9.684C41.609,17.524,41.102,17.524,40.789,17.836L40.789,17.836z M40.789,17.836"/>
</g>
</svg>
