<?xml version="1.0" encoding="iso-8859-1"?>
<!-- Generator: Adobe Illustrator 17.1.0, SVG Export Plug-In . SVG Version: 6.00 Build 0)  -->
<!DOCTYPE svg PUBLIC "-//W3C//DTD SVG 1.1//EN" "http://www.w3.org/Graphics/SVG/1.1/DTD/svg11.dtd">
<svg version="1.1" id="Calque_1" xmlns="http://www.w3.org/2000/svg" xmlns:xlink="http://www.w3.org/1999/xlink" x="0px" y="0px"
	 viewBox="0 0 93.391 38.637" style="enable-background:new 0 0 93.391 38.637;" xml:space="preserve">
<g>
	<path style="fill:#EE650D;" d="M14.248,1.765c10.04-0.011,13.165,7.794,12.403,12.786c-0.583,3.817-3.396,7.989-3.396,7.989
		l-8.967,14.332L5.288,22.56c0,0-2.823-4.166-3.414-7.981C1.1,9.589,4.208,1.776,14.248,1.765 M14.246,0
		C8.293,0.007,4.894,2.519,3.092,4.625C0.253,7.941-0.3,12.081,0.129,14.849c0.625,4.035,3.4,8.257,3.679,8.673l8.985,14.289
		c0.323,0.514,0.889,0.826,1.496,0.826c0.608-0.001,1.172-0.314,1.494-0.829l8.953-14.309c0.278-0.417,3.043-4.645,3.659-8.682
		c0.423-2.769-0.139-6.908-2.986-10.218C23.603,2.498,20.199-0.007,14.246,0L14.246,0z"/>
	<path style="fill:#EE650D;" d="M15.361,21.059c0,0-0.003-2.877-0.004-3.373c-0.001-0.496-0.596-0.694-0.596-0.694l-2.58,0.003
		l-0.003-3.076l2.082-1.59l2.085,1.684c0,0,0.007,6.449,0.008,6.945c0.001,0.496,0.695,0.743,0.695,0.743l3.324-0.004
		c0.595-0.001,0.694-0.695,0.694-0.695s-0.008-7.541-0.009-8.334c-0.001-0.794-0.398-1.289-0.398-1.289s-5.561-4.359-5.859-4.657
		s-1.091,0.001-1.091,0.001s-5.254,4.272-5.749,4.769c-0.496,0.497-0.495,0.993-0.495,0.993s0.009,7.739,0.009,8.434
		c0.001,0.695,0.795,0.793,0.795,0.793l6.548-0.007C15.362,21.704,15.361,21.059,15.361,21.059z"/>
	<path style="fill:#EE650D;" d="M48.458,9.271l-5.833,17.387l-3.362,0.004L33.392,9.288l3.76-0.004l3.799,11.949l3.772-11.957
		L48.458,9.271z"/>
	<path style="fill:#EE650D;" d="M51.43,12.404c-1.046,0.001-1.918-0.869-1.92-1.914c-0.001-1.072,0.869-1.919,1.915-1.92
		c1.071-0.001,1.918,0.844,1.92,1.916C53.346,11.531,52.5,12.403,51.43,12.404z M53.089,26.646l-3.312,0.004l-0.014-12.301
		l3.312-0.004L53.089,26.646z"/>
	<path style="fill:#EE650D;" d="M65.863,26.632l-10.011,0.011l-0.003-2.514l5.297-6.557l-5.055,0.006l-0.004-3.236l9.762-0.011
		l0.003,2.465l-5.347,6.606l5.354-0.006L65.863,26.632z"/>
	<path style="fill:#EE650D;" d="M78.363,26.618l-10.011,0.011l-0.003-2.514l5.297-6.557l-5.055,0.006l-0.004-3.236l9.762-0.011
		l0.003,2.465l-5.347,6.606l5.354-0.006L78.363,26.618z"/>
	<path style="fill:#EE650D;" d="M83.002,12.369c-1.046,0.001-1.918-0.869-1.92-1.914c-0.001-1.072,0.869-1.919,1.915-1.92
		c1.071-0.001,1.918,0.844,1.92,1.916C84.919,11.496,84.073,12.368,83.002,12.369z M84.662,26.611l-3.312,0.004l-0.014-12.301
		l3.312-0.004L84.662,26.611z"/>
	<path style="fill:#EE650D;" d="M93.391,17.138l-1.569,0.002l0.006,5.678c0.001,0.623,0.325,0.947,1.097,0.946l0.003,2.838
		l-1.32,0.001c-2.067,0.002-3.065-1.565-3.067-3.483l-0.007-5.977l-1.37,0.002l-0.003-2.838l1.37-0.002l-0.004-3.287l3.287-0.004
		l0.004,3.287l1.569-0.002L93.391,17.138z"/>
</g>
</svg>
