<?xml version="1.0" encoding="iso-8859-1"?>
<!-- Generator: Adobe Illustrator 19.0.1, SVG Export Plug-In . SVG Version: 6.00 Build 0)  -->
<svg version="1.1" id="Layer_1" xmlns="http://www.w3.org/2000/svg" xmlns:xlink="http://www.w3.org/1999/xlink" x="0px" y="0px"
	 viewBox="0 0 80 64" style="enable-background:new 0 0 80 64;" xml:space="preserve">
<g>
	<path style="fill:#FFFFFF;" d="M40,24c-6.629,0-12,5.375-12,12c0,6.629,5.371,12,12,12c6.625,0,12-5.371,12-12
		C52,29.375,46.625,24,40,24L40,24z M72,12h-9.602c-1.32,0-2.742-1.023-3.156-2.277l-2.484-7.446C56.34,1.023,54.922,0,53.602,0
		H26.398c-1.32,0-2.742,1.023-3.156,2.277l-2.484,7.446C20.34,10.977,18.922,12,17.602,12H8c-4.398,0-8,3.602-8,8v36
		c0,4.398,3.602,8,8,8h64c4.398,0,8-3.602,8-8V20C80,15.602,76.398,12,72,12L72,12z M40,56c-11.047,0-20-8.953-20-20
		c0-11.043,8.953-20,20-20c11.043,0,20,8.957,20,20C60,47.047,51.043,56,40,56L40,56z M69.199,25.594
		c-1.543,0-2.801-1.254-2.801-2.801c0-1.543,1.258-2.797,2.801-2.797c1.547,0,2.801,1.254,2.801,2.797
		C72,24.34,70.746,25.594,69.199,25.594L69.199,25.594z M69.199,25.594"/>
</g>
</svg>
