<?xml version="1.0" encoding="iso-8859-1"?>
<!-- Generator: Adobe Illustrator 19.0.1, SVG Export Plug-In . SVG Version: 6.00 Build 0)  -->
<svg version="1.1" id="Layer_1" xmlns="http://www.w3.org/2000/svg" xmlns:xlink="http://www.w3.org/1999/xlink" x="0px" y="0px"
	 viewBox="0 0 50 50" style="enable-background:new 0 0 50 50;" xml:space="preserve">
<g>
	<path style="fill:#FFFFFF;" d="M7.432,12.917c3.088,0,5.649-2.295,6.078-5.272h34.33c0.49,0,0.88-0.39,0.88-0.874
		c0-0.49-0.39-0.88-0.88-0.88H13.51c-0.429-2.977-2.99-5.272-6.078-5.272c-3.393,0-6.152,2.759-6.152,6.152
		C1.28,10.16,4.039,12.917,7.432,12.917L7.432,12.917z M7.432,2.378c2.419,0,4.393,1.969,4.393,4.393
		c0,2.419-1.973,4.393-4.393,4.393c-2.424,0-4.393-1.973-4.393-4.393C3.039,4.347,5.008,2.378,7.432,2.378L7.432,2.378z
		 M7.432,2.378"/>
	<path style="fill:#FFFFFF;" d="M42.573,37.519c-3.094,0-5.654,2.294-6.084,5.267H2.16c-0.485,0-0.88,0.395-0.88,0.88
		c0,0.485,0.394,0.88,0.88,0.88h34.33c0.429,2.973,2.99,5.272,6.084,5.272c3.389,0,6.146-2.759,6.146-6.152
		C48.72,40.277,45.962,37.519,42.573,37.519L42.573,37.519z M42.573,48.058c-2.424,0-4.393-1.969-4.393-4.393
		c0-2.419,1.969-4.393,4.393-4.393c2.419,0,4.393,1.973,4.393,4.393C46.966,46.089,44.993,48.058,42.573,48.058L42.573,48.058z
		 M42.573,48.058"/>
	<path style="fill:#FFFFFF;" d="M47.84,24.341H31.475c-0.351-3.166-3.038-5.637-6.292-5.637c-3.256,0-5.942,2.471-6.294,5.637H2.16
		c-0.485,0-0.88,0.39-0.88,0.874c0,0.49,0.394,0.88,0.88,0.88h16.785c0.506,2.99,3.106,5.272,6.238,5.272
		c3.126,0,5.726-2.282,6.232-5.272H47.84c0.49,0,0.88-0.39,0.88-0.88C48.72,24.731,48.33,24.341,47.84,24.341L47.84,24.341z
		 M25.183,29.608c-2.522,0-4.573-2.05-4.573-4.573c0-2.521,2.05-4.573,4.573-4.573c2.521,0,4.573,2.051,4.573,4.573
		C29.756,27.558,27.704,29.608,25.183,29.608L25.183,29.608z M25.183,29.608"/>
</g>
</svg>
