<?xml version="1.0" encoding="utf-8"?>
<!-- Generator: Adobe Illustrator 17.1.0, SVG Export Plug-In . SVG Version: 6.00 Build 0)  -->
<!DOCTYPE svg PUBLIC "-//W3C//DTD SVG 1.1//EN" "http://www.w3.org/Graphics/SVG/1.1/DTD/svg11.dtd">
<svg version="1.1" id="Layer_1" xmlns="http://www.w3.org/2000/svg" xmlns:xlink="http://www.w3.org/1999/xlink" x="0px" y="0px"
	 viewBox="0 0 20 20" enable-background="new 0 0 20 20" xml:space="preserve">
<g>
	<g>
		<path fill="#F45B5B" d="M18.4,2.8c-1-1-2.4-1.6-3.9-1.6c-1.5,0-2.9,0.6-3.9,1.6L10,3.4L9.5,2.8c-1-1-2.4-1.6-3.9-1.6
			c-1.5,0-2.9,0.6-3.9,1.6C0.6,3.9,0,5.3,0,6.7c0,1.5,0.6,2.9,1.6,3.9l8,8c0.1,0.1,0.3,0.2,0.4,0.2s0.3-0.1,0.4-0.2l8-7.9
			c1-1,1.6-2.4,1.6-3.9C20,5.3,19.4,3.9,18.4,2.8L18.4,2.8z M17.6,9.9L10,17.4L2.4,9.9C1.6,9,1.1,7.9,1.1,6.7s0.5-2.3,1.3-3.1
			c0.8-0.8,1.9-1.3,3.1-1.3c1.2,0,2.3,0.5,3.1,1.3l1,1c0.2,0.2,0.6,0.2,0.8,0l0.9-0.9c0.8-0.8,1.9-1.3,3.1-1.3
			c1.2,0,2.3,0.5,3.1,1.3c0.8,0.8,1.3,1.9,1.3,3.1C18.9,7.9,18.4,9,17.6,9.9L17.6,9.9z"/>
	</g>
</g>
</svg>
