<?xml version="1.0" encoding="iso-8859-1"?>
<!-- Generator: Adobe Illustrator 19.0.1, SVG Export Plug-In . SVG Version: 6.00 Build 0)  -->
<svg version="1.1" id="Capa_1" xmlns="http://www.w3.org/2000/svg" xmlns:xlink="http://www.w3.org/1999/xlink" x="0px" y="0px"
	 viewBox="182 372 50 50" style="enable-background:new 182 372 50 50;" xml:space="preserve">
<path style="fill:#FFFFFF;" d="M231.123,382.865c0-2.329-1.897-4.24-4.24-4.24h-39.765c-2.335,0-4.24,1.903-4.24,4.24v28.269
	c0,2.329,1.897,4.24,4.24,4.24h39.765c2.329,0,4.24-1.897,4.24-4.24V382.865z M185.704,383.437l13.614,13.498l-13.614,13.614
	V383.437z M207.09,400.659l-19.373-19.207h38.581L207.09,400.659z M201.326,398.925l4.773,4.732
	c0.553,0.548,1.444,0.546,1.995-0.004l4.654-4.654l13.549,13.549h-38.594L201.326,398.925z M214.747,397l13.549-13.549v27.098
	L214.747,397z"/>
</svg>
