<?xml version="1.0" encoding="iso-8859-1"?>
<!-- Generator: Adobe Illustrator 19.0.1, SVG Export Plug-In . SVG Version: 6.00 Build 0)  -->
<svg version="1.1" id="Layer_1" xmlns="http://www.w3.org/2000/svg" xmlns:xlink="http://www.w3.org/1999/xlink" x="0px" y="0px"
	 viewBox="0 0 50 50" style="enable-background:new 0 0 50 50;" xml:space="preserve">
<g>
	<g>
		<defs>
			<rect id="SVGID_1_" x="3.829" width="42.342" height="50"/>
		</defs>
		<clipPath id="SVGID_2_">
			<use xlink:href="#SVGID_1_"  style="overflow:visible;"/>
		</clipPath>
		<path style="clip-path:url(#SVGID_2_);fill:#EE650D;" d="M45.932,41.507l-7.265-12.764c0.736-0.344,1.178-1.129,1.129-2.013
			l-0.54-4.517l3.093-3.24c0.687-0.687,0.736-1.865,0.048-2.7l-3.092-3.338l0.638-4.566c0.098-0.982-0.589-1.964-1.571-2.16
			l-4.468-0.883l-2.16-3.977c-0.442-0.932-1.522-1.325-2.504-0.932h-0.049l-4.124,1.915l-4.026-1.964
			c-0.442-0.246-0.982-0.295-1.472-0.147c-0.491,0.147-0.884,0.491-1.129,0.933L16.232,5.13l-4.468,0.786
			c-1.031,0.197-1.718,1.129-1.62,2.209l0.54,4.517l-3.093,3.24c-0.687,0.687-0.736,1.865-0.049,2.7l3.093,3.338l-0.638,4.565
			c-0.098,0.884,0.442,1.719,1.276,2.062l-7.315,12.96c-0.197,0.294-0.147,0.687,0,0.982c0.197,0.295,0.491,0.491,0.835,0.491h7.855
			l3.584,6.234c0.197,0.295,0.491,0.492,0.835,0.492c0.343,0,0.687-0.197,0.834-0.492l7.02-11.978l7.02,12.126
			c0.196,0.295,0.491,0.491,0.834,0.491c0.344,0,0.687-0.196,0.835-0.491l3.584-6.381h7.855c0.344,0,0.687-0.197,0.835-0.491
			C46.128,42.195,46.128,41.801,45.932,41.507L45.932,41.507z M17.115,46.76l-3.044-5.253c-0.197-0.295-0.492-0.491-0.835-0.491
			H6.462l6.775-11.979l2.798,0.491l2.161,3.977c0.442,0.932,1.521,1.326,2.504,0.932h0.049l2.012-0.932l0.982,1.718L17.115,46.76z
			 M19.963,32.67h-0.049l-2.16-4.074c-0.295-0.491-0.786-0.884-1.375-0.932l-4.517-0.835l0.638-4.517
			c0.098-0.589-0.098-1.227-0.491-1.62l-3.044-3.338l3.093-3.24c0.442-0.442,0.638-1.031,0.54-1.62l-0.54-4.467
			c0,0,0-0.049,0.049-0.098l4.468-0.786c0.54-0.098,1.08-0.442,1.374-0.982l2.209-3.977l4.025,1.964c0.54,0.294,1.227,0.294,1.767,0
			l4.075-1.866h0.049l2.16,4.074c0.295,0.491,0.786,0.884,1.326,0.933l4.468,0.883L37.39,12.69c-0.098,0.589,0.098,1.227,0.491,1.62
			l3.093,3.339l-3.142,3.24c-0.442,0.442-0.638,1.031-0.54,1.62l0.54,4.517l-4.418,0.736c-0.54,0.098-1.08,0.442-1.375,0.982
			L29.83,32.72l-4.025-1.964c-0.54-0.294-1.227-0.294-1.768,0L19.963,32.67z M36.654,41.016c-0.344,0-0.687,0.196-0.835,0.491
			l-3.044,5.4l-6.922-11.978c-0.048-0.147-0.098-0.246-0.196-0.344l-1.08-1.915l0.343-0.147l4.025,1.963
			c0.295,0.147,0.589,0.197,0.884,0.197c0.687,0,1.375-0.343,1.718-0.982l2.209-3.977l2.945-0.54l6.726,11.831H36.654z
			 M36.654,41.016"/>
	</g>
	<path style="fill:#EE650D;" d="M34.739,17.452c0-5.4-4.418-9.818-9.818-9.818c-5.4,0-9.818,4.418-9.818,9.818
		c0,5.4,4.418,9.818,9.818,9.818C30.321,27.27,34.739,22.852,34.739,17.452L34.739,17.452z M24.921,25.307
		c-4.32,0-7.855-3.534-7.855-7.855c0-4.32,3.534-7.855,7.855-7.855c4.32,0,7.855,3.534,7.855,7.855
		C32.776,21.772,29.241,25.307,24.921,25.307L24.921,25.307z M24.921,25.307"/>
</g>
</svg>
