<?xml version="1.0" encoding="iso-8859-1"?>
<!-- Generator: Adobe Illustrator 19.0.1, SVG Export Plug-In . SVG Version: 6.00 Build 0)  -->
<svg version="1.1" id="Layer_1" xmlns="http://www.w3.org/2000/svg" xmlns:xlink="http://www.w3.org/1999/xlink" x="0px" y="0px"
	 viewBox="0 0 50 50" style="enable-background:new 0 0 50 50;" xml:space="preserve">
<g>
	<path style="fill:#EE650D;" d="M8.625,0.268c-2.458,0-5.719,6.621-5.719,11.676c0,3.331,1.116,5.14,2.783,5.987
		c1.344,0.684,2.132,2.123,1.985,3.625L5.276,46.04c-0.092,0.945,0.219,1.886,0.857,2.588c0.638,0.703,1.542,1.104,2.493,1.104
		c0.95,0,1.855-0.401,2.492-1.104c0.638-0.702,0.948-1.643,0.857-2.588L9.577,21.554c-0.146-1.501,0.643-2.94,1.985-3.625
		c1.667-0.847,2.783-2.655,2.783-5.987C14.345,6.888,11.215,0.268,8.625,0.268L8.625,0.268z M8.625,0.268"/>
	<path style="fill:#EE650D;" d="M30.571,0.268c-0.452,0-0.82,0.367-0.82,0.821v10.102c0,0.456-0.369,0.825-0.824,0.825
		c-0.455,0-0.824-0.369-0.824-0.825V1.089c0-0.454-0.368-0.821-0.82-0.821h-0.01c-0.453,0-0.819,0.367-0.819,0.821v10.102
		c0,0.456-0.369,0.825-0.825,0.825c-0.456,0-0.824-0.369-0.824-0.825V1.089c0-0.454-0.367-0.821-0.82-0.821h-0.01
		c-0.452,0-0.819,0.367-0.819,0.821v10.102c0,0.456-0.369,0.825-0.824,0.825c-0.456,0-0.825-0.369-0.825-0.825V1.089
		c0-0.454-0.367-0.821-0.82-0.821c-0.429,0-0.778,0.347-0.778,0.776v10.9c0,3.331,1.116,5.14,2.783,5.987
		c1.344,0.684,2.132,2.123,1.985,3.625L22.279,46.04c-0.092,0.945,0.219,1.886,0.857,2.588c0.638,0.703,1.543,1.104,2.493,1.104
		c0.95,0,1.855-0.401,2.493-1.104c0.637-0.702,0.948-1.643,0.857-2.588L26.58,21.554c-0.146-1.501,0.643-2.94,1.985-3.625
		c1.667-0.847,2.782-2.655,2.782-5.987v-10.9C31.348,0.615,31.001,0.268,30.571,0.268L30.571,0.268z M30.571,0.268"/>
	<path style="fill:#EE650D;" d="M43.959,23.626c0.311,0,0.562-0.251,0.562-0.562V1.253c0-0.544-0.441-0.985-0.986-0.985
		c-0.472,0-0.888,0.312-1.018,0.766l-3.415,11.909c-0.998,3.484-0.386,7.235,1.668,10.221c0.2,0.29,0.53,0.462,0.881,0.462
		L39.456,46.04c-0.092,0.945,0.219,1.886,0.857,2.588c0.637,0.703,1.542,1.104,2.492,1.104c0.95,0,1.855-0.401,2.493-1.104
		c0.637-0.702,0.948-1.643,0.856-2.588L43.959,23.626z M43.959,23.626"/>
</g>
</svg>
