<?xml version="1.0" encoding="iso-8859-1"?>
<!-- Generator: Adobe Illustrator 19.0.1, SVG Export Plug-In . SVG Version: 6.00 Build 0)  -->
<svg version="1.1" id="Layer_1" xmlns="http://www.w3.org/2000/svg" xmlns:xlink="http://www.w3.org/1999/xlink" x="0px" y="0px"
	 viewBox="0 0 50 50" style="enable-background:new 0 0 50 50;" xml:space="preserve">
<g>
	<path style="fill:#EE650D;" d="M48.081,1.007H1.92c-0.534,0-0.967,0.432-0.967,0.967v46.162c0,0.533,0.432,0.967,0.967,0.967
		h28.153c0.534,0,0.967-0.433,0.967-0.967c0-0.533-0.432-0.967-0.967-0.967H2.886V24.645h13.478v9.265
		c0,0.533,0.433,0.966,0.967,0.966c0.533,0,0.967-0.432,0.967-0.966V13.675c0-0.534-0.433-0.967-0.967-0.967
		c-0.533,0-0.967,0.432-0.967,0.967v9.037H2.886V2.94h26.221v12.1c0,0.533,0.432,0.966,0.966,0.966h10.22
		c0.533,0,0.967-0.432,0.967-0.966c0-0.534-0.433-0.967-0.967-0.967H31.04V2.94h16.075v30.003H30.073
		c-0.533,0-0.966,0.432-0.966,0.967c0,0.533,0.432,0.966,0.966,0.966h17.042V47.17h-6.821c-0.533,0-0.967,0.432-0.967,0.967
		c0,0.533,0.433,0.966,0.967,0.966h7.788c0.533,0,0.966-0.432,0.966-0.966V1.974C49.047,1.439,48.615,1.007,48.081,1.007
		L48.081,1.007z M48.081,1.007"/>
</g>
</svg>
