<?xml version="1.0" encoding="iso-8859-1"?>
<!-- Generator: Adobe Illustrator 19.0.1, SVG Export Plug-In . SVG Version: 6.00 Build 0)  -->
<svg version="1.1" id="Layer_1" xmlns="http://www.w3.org/2000/svg" xmlns:xlink="http://www.w3.org/1999/xlink" x="0px" y="0px"
	 viewBox="0 0 37.355 56.033" style="enable-background:new 0 0 37.355 56.033;" xml:space="preserve">
<g>
	<g>
		<path style="fill:#DADADA;" d="M18.678,0C8.379,0,0,8.377,0,18.678c0,9.908,16.978,35.737,17.704,36.83
			c0.215,0.325,0.581,0.525,0.974,0.525c0.392,0,0.756-0.201,0.974-0.525c0.724-1.092,17.704-26.921,17.704-36.83
			C37.355,8.377,28.976,0,18.678,0L18.678,0z M18.678,26.849c-4.506,0-8.171-3.666-8.171-8.171c0-4.506,3.665-8.171,8.171-8.171
			c4.506,0,8.171,3.665,8.171,8.171C26.849,23.183,23.183,26.849,18.678,26.849L18.678,26.849z M18.678,26.849"/>
	</g>
</g>
</svg>
